<svg version="1.1" xmlns="http://www.w3.org/2000/svg" xmlns:xlink="http://www.w3.org/1999/xlink" viewBox="0 0 172 172"><defs><linearGradient x1="61.8125" y1="72.10025" x2="61.8125" y2="89.47762" gradientUnits="userSpaceOnUse" id="color-1"><stop offset="0" stop-color="#ffffff"></stop><stop offset="1" stop-color="#b8b8b8"></stop></linearGradient><linearGradient x1="77.9375" y1="90.25431" x2="77.9375" y2="104.60288" gradientUnits="userSpaceOnUse" id="color-2"><stop offset="0" stop-color="#ffffff"></stop><stop offset="1" stop-color="#b8b8b8"></stop></linearGradient><linearGradient x1="94.0625" y1="72.10025" x2="94.0625" y2="89.47762" gradientUnits="userSpaceOnUse" id="color-3"><stop offset="0" stop-color="#ffffff"></stop><stop offset="1" stop-color="#b8b8b8"></stop></linearGradient><linearGradient x1="64.63438" y1="18.58406" x2="64.63438" y2="149.24494" gradientUnits="userSpaceOnUse" id="color-4"><stop offset="0" stop-color="#e6e6e6"></stop><stop offset="1" stop-color="#808080"></stop></linearGradient><linearGradient x1="77.9375" y1="18.58406" x2="77.9375" y2="149.24494" gradientUnits="userSpaceOnUse" id="color-5"><stop offset="0" stop-color="#e6e6e6"></stop><stop offset="1" stop-color="#808080"></stop></linearGradient><linearGradient x1="118.25" y1="18.58406" x2="118.25" y2="149.24494" gradientUnits="userSpaceOnUse" id="color-6"><stop offset="0" stop-color="#e6e6e6"></stop><stop offset="1" stop-color="#808080"></stop></linearGradient><linearGradient x1="118.25" y1="18.58406" x2="118.25" y2="149.24494" gradientUnits="userSpaceOnUse" id="color-7"><stop offset="0" stop-color="#e6e6e6"></stop><stop offset="1" stop-color="#808080"></stop></linearGradient><linearGradient x1="118.25" y1="18.58406" x2="118.25" y2="149.24494" gradientUnits="userSpaceOnUse" id="color-8"><stop offset="0" stop-color="#e6e6e6"></stop><stop offset="1" stop-color="#808080"></stop></linearGradient></defs><g fill="none" fill-rule="nonzero" stroke="none" stroke-width="1" stroke-linecap="butt" stroke-linejoin="miter" stroke-miterlimit="10" stroke-dasharray="" stroke-dashoffset="0" font-family="none" font-weight="none" font-size="none" text-anchor="none" style="mix-blend-mode: normal"><path d="M0,172v-172h172v172z" fill="none"></path><g><circle cx="23" cy="30" transform="scale(2.6875,2.6875)" r="2.5" fill="url(#color-1)"></circle><path d="M83.3125,91.375h-10.75c-1.4835,0 -2.6875,1.204 -2.6875,2.6875c0,4.45319 3.60931,8.0625 8.0625,8.0625c4.45319,0 8.0625,-3.60931 8.0625,-8.0625c0,-1.4835 -1.204,-2.6875 -2.6875,-2.6875z" fill="url(#color-2)"></path><circle cx="35" cy="30" transform="scale(2.6875,2.6875)" r="2.5" fill="url(#color-3)"></circle><path d="M51.33125,48.91788l4.84019,2.33544c0.25263,-0.52137 0.52406,-1.032 0.81431,-1.53188c4.31612,-7.4605 12.34369,-12.09644 20.95175,-12.09644v-5.375c-10.51888,0 -20.33094,5.66256 -25.60381,14.77856c-0.35744,0.61812 -0.69337,1.247 -1.00244,1.88931z" fill="url(#color-4)"></path><path d="M113.07388,102.97694c1.91619,-3.397 3.38625,-7.08694 4.24625,-11.0295l-5.24869,-1.14756c-3.47225,15.90731 -17.82887,27.45013 -34.13394,27.45013c-19.264,0 -34.9375,-15.6735 -34.9375,-34.9375v-21.5c0,-19.264 15.6735,-34.9375 34.9375,-34.9375v-5.375c-22.22831,0 -40.3125,18.08419 -40.3125,40.3125v2.6875c-8.89294,0 -16.125,7.23206 -16.125,16.125c0,8.89294 7.23206,16.125 16.125,16.125h2.35156c0.77131,2.16881 1.6985,4.257 2.81112,6.23769c-15.03387,11.13969 -23.97519,28.76163 -23.97519,47.51231v5.375h118.25v-5.375c0,-18.75606 -8.94669,-36.38337 -23.98862,-47.52306zM37.625,91.375c-5.92862,0 -10.75,-4.82137 -10.75,-10.75c0,-5.92863 4.82138,-10.75 10.75,-10.75v13.4375c0,2.76006 0.28219,5.45562 0.81162,8.0625zM45.74931,107.48119c7.36106,9.77981 19.03019,16.14381 32.18819,16.14381c12.90537,0 24.7465,-6.26994 32.20969,-16.13037c1.45394,1.09112 2.84606,2.24138 4.16831,3.4615c-8.62956,11.34663 -22.02675,18.04388 -36.378,18.04388c-14.34856,0 -27.75112,-6.69725 -36.378,-18.04387c1.32762,-1.2255 2.72781,-2.38112 4.18981,-3.47494zM73.30963,150.5c0.93256,-1.59906 2.64719,-2.6875 4.62788,-2.6875c1.98069,0 3.69531,1.08844 4.62788,2.6875zM120.9375,150.5v-5.375h-5.375v5.375h-27.25663c-1.20131,-4.6225 -5.37231,-8.0625 -10.36837,-8.0625c-4.99606,0 -9.16706,3.44 -10.36837,8.0625h-27.25662v-5.375h-5.375v5.375h-10.75c0,-13.28431 4.93156,-25.9505 13.57725,-35.69c9.65619,12.31144 24.39444,19.565 40.17275,19.565c15.77831,0 30.52194,-7.25356 40.17275,-19.565c8.643,9.7395 13.57725,22.40569 13.57725,35.69z" fill="url(#color-5)"></path><path d="M139.75,16.125h-43c-7.40944,0 -13.4375,6.02806 -13.4375,13.4375v26.875c0,7.40944 6.02806,13.4375 13.4375,13.4375h12.98062c3.06644,0 5.676,2.279 5.82381,5.08206c0.07794,1.49694 -0.44344,2.91325 -1.47006,3.99363c-1.02394,1.08038 -2.408,1.67431 -3.89688,1.67431v5.375h5.375c9.46269,0 17.31287,-7.01975 18.62169,-16.125h5.56581c7.40944,0 13.4375,-6.02806 13.4375,-13.4375v-26.875c0,-7.40944 -6.02806,-13.4375 -13.4375,-13.4375zM147.8125,56.4375c0,4.44512 -3.61738,8.0625 -8.0625,8.0625h-10.75v2.6875c0,5.89906 -3.82162,10.922 -9.12137,12.72531c0.77669,-1.60712 1.1395,-3.39431 1.04544,-5.23794c-0.29831,-5.70556 -5.21644,-10.17487 -11.19344,-10.17487h-12.98062c-4.44512,0 -8.0625,-3.61738 -8.0625,-8.0625v-26.875c0,-4.44513 3.61738,-8.0625 8.0625,-8.0625h43c4.44512,0 8.0625,3.61737 8.0625,8.0625z" fill="url(#color-6)"></path><path d="M118.25,26.875c-5.92863,0 -10.75,5.375 -10.75,10.75h5.375c0,-2.6875 2.41069,-5.375 5.375,-5.375c2.96162,0 5.375,2.41069 5.375,5.375c0,2.96431 -2.41069,5.375 -5.375,5.375h-2.6875v8.0625h5.375v-3.02613c2.6875,-1.19325 8.0625,-5.40994 8.0625,-10.40869c0,-5.93131 -4.82137,-10.75269 -10.75,-10.75269z" fill="url(#color-7)"></path><rect x="43" y="20" transform="scale(2.6875,2.6875)" width="2" height="2" fill="url(#color-8)"></rect></g></g></svg>