<svg version="1.1" xmlns="http://www.w3.org/2000/svg" xmlns:xlink="http://www.w3.org/1999/xlink" viewBox="0 0 226 226"><defs><linearGradient x1="183.625" y1="155.96472" x2="183.625" y2="178.35991" gradientUnits="userSpaceOnUse" id="color-1"><stop offset="0" stop-color="#ffffff"></stop><stop offset="1" stop-color="#b8b8b8"></stop></linearGradient><linearGradient x1="113" y1="17.65625" x2="113" y2="210.11291" gradientUnits="userSpaceOnUse" id="color-2"><stop offset="0" stop-color="#e6e6e6"></stop><stop offset="1" stop-color="#808080"></stop></linearGradient><linearGradient x1="67.09375" y1="104.76159" x2="67.09375" y2="115.35534" gradientUnits="userSpaceOnUse" id="color-3"><stop offset="0" stop-color="#ffffff"></stop><stop offset="1" stop-color="#b8b8b8"></stop></linearGradient></defs><g fill="none" fill-rule="nonzero" stroke="none" stroke-width="1" stroke-linecap="butt" stroke-linejoin="miter" stroke-miterlimit="10" stroke-dasharray="" stroke-dashoffset="0" font-family="none" font-weight="none" font-size="none" text-anchor="none" style="mix-blend-mode: normal"><path d="M0,226v-226h226v226z" fill="none"></path><g><path d="M183.625,158.90625c-3.90051,0 -7.0625,3.16199 -7.0625,7.0625c0,3.90051 3.16199,7.0625 7.0625,7.0625c3.90051,0 7.0625,-3.16199 7.0625,-7.0625c0,-3.90051 -3.16199,-7.0625 -7.0625,-7.0625z" fill="url(#color-1)"></path><path d="M187.15625,145.09906v-35.63031c0,-13.62709 -11.08812,-24.71875 -24.71875,-24.71875h-10.59375c-13.62709,0 -24.71875,11.09166 -24.71875,24.71875v70.625c0,9.73566 -7.92059,17.65625 -17.65625,17.65625h-21.1875c-9.73566,0 -17.65625,-7.92059 -17.65625,-17.65625v-46.26291c7.0625,-1.64203 14.125,-8.77163 14.125,-17.29959v-5.01438c17.65625,-4.68244 28.25,-19.94097 28.25,-37.36062v-42.375c0,-5.84069 -4.75306,-10.59375 -10.59375,-10.59375h-17.71275c-3.86319,0 -7.006,3.14634 -7.006,7.006v3.58775c0,5.84069 4.75306,10.59375 10.59375,10.59375c5.84069,0 10.59375,-4.75306 10.59375,-10.59375v-3.53125h3.53125c1.94925,0 3.53125,1.582 3.53125,3.53125v42.375c0,13.66241 -8.814,25.67925 -21.44881,30.02975c-0.80513,-3.04747 -3.5595,-5.311 -6.85769,-5.311h-21.07803c-3.29819,0 -6.04903,2.26353 -6.85416,5.311c-12.63481,-4.3505 -21.44881,-16.37088 -21.44881,-30.02975v-42.375c0,-1.94925 1.582,-3.53125 3.52772,-3.53125l3.53478,-0.01059v3.54184c0,5.84069 4.75306,10.59375 10.59375,10.59375c5.84069,0 10.59375,-4.75306 10.59375,-10.59375v-3.58775c0,-3.85966 -3.14281,-7.006 -7.00953,-7.006h-17.70922c-5.84069,0 -10.59375,4.75306 -10.59375,10.59375v42.375c0,17.41966 10.59375,32.67819 28.25,37.36063v5.01438c0,8.52797 7.0625,15.65756 14.125,17.29959v46.26291c0,13.62709 11.08813,24.71875 24.71875,24.71875h21.1875c13.63062,0 24.71875,-11.09166 24.71875,-24.71875v-70.625c0,-9.73566 7.92059,-17.65625 17.65625,-17.65625h10.59375c9.73919,0 17.65625,7.92059 17.65625,17.65625v35.63031c-10.59375,1.68794 -17.65978,10.38894 -17.65978,20.86969c0,11.68491 9.50612,21.1875 21.1875,21.1875c11.68137,0 21.1875,-9.50259 21.1875,-21.1875c0,-10.47722 -7.05897,-19.17822 -17.65272,-20.86969zM91.8125,31.78125c0,1.94925 -1.582,3.53125 -3.53125,3.53125c-1.94925,0 -3.53125,-1.582 -3.53125,-3.53125l-0.0565,-3.53125h7.119zM42.375,28.21469l7.0625,-0.02119v3.58775c0,1.94925 -1.582,3.53125 -3.53125,3.53125c-1.94925,0 -3.53125,-1.582 -3.53125,-3.53125zM77.6875,105.994v7.006h-21.16984l0.03531,-7.0625zM57.15328,120.0625h19.88447c-1.46194,4.10331 -5.34631,7.0625 -9.944,7.0625c-4.59769,0 -8.47853,-2.95919 -9.94047,-7.0625zM183.625,180.09375c-7.78994,0 -14.125,-6.33506 -14.125,-14.125c0,-7.78994 6.33506,-14.125 14.125,-14.125c7.78994,0 14.125,6.33506 14.125,14.125c0,7.78994 -6.33506,14.125 -14.125,14.125z" fill="url(#color-2)"></path><path d="M56.5,105.9375h21.1875v7.0625h-21.1875z" fill="url(#color-3)"></path></g></g></svg>