<svg version="1.1" xmlns="http://www.w3.org/2000/svg" xmlns:xlink="http://www.w3.org/1999/xlink" viewBox="0 0 226 226"><defs><linearGradient x1="56.5" y1="68.85938" x2="208.34375" y2="68.85938" gradientUnits="userSpaceOnUse" id="color-1"><stop offset="0" stop-color="#e6e6e6"></stop><stop offset="1" stop-color="#808080"></stop></linearGradient><linearGradient x1="130.65625" y1="59.14844" x2="130.65625" y2="78.57384" gradientUnits="userSpaceOnUse" id="color-2"><stop offset="0" stop-color="#ffffff"></stop><stop offset="1" stop-color="#b8b8b8"></stop></linearGradient><linearGradient x1="49.4375" y1="100.19922" x2="49.4375" y2="126.68713" gradientUnits="userSpaceOnUse" id="color-3"><stop offset="0" stop-color="#ffffff"></stop><stop offset="1" stop-color="#b8b8b8"></stop></linearGradient><linearGradient x1="113" y1="34.13659" x2="113" y2="192.63675" gradientUnits="userSpaceOnUse" id="color-4"><stop offset="0" stop-color="#e6e6e6"></stop><stop offset="1" stop-color="#808080"></stop></linearGradient><linearGradient x1="141.25" y1="34.13659" x2="141.25" y2="192.63675" gradientUnits="userSpaceOnUse" id="color-5"><stop offset="0" stop-color="#e6e6e6"></stop><stop offset="1" stop-color="#808080"></stop></linearGradient><linearGradient x1="148.3125" y1="34.13659" x2="148.3125" y2="192.63675" gradientUnits="userSpaceOnUse" id="color-6"><stop offset="0" stop-color="#e6e6e6"></stop><stop offset="1" stop-color="#808080"></stop></linearGradient><linearGradient x1="113" y1="34.13659" x2="113" y2="192.63675" gradientUnits="userSpaceOnUse" id="color-7"><stop offset="0" stop-color="#e6e6e6"></stop><stop offset="1" stop-color="#808080"></stop></linearGradient><linearGradient x1="77.6875" y1="34.13659" x2="77.6875" y2="192.63675" gradientUnits="userSpaceOnUse" id="color-8"><stop offset="0" stop-color="#e6e6e6"></stop><stop offset="1" stop-color="#808080"></stop></linearGradient><linearGradient x1="42.375" y1="34.13659" x2="42.375" y2="192.63675" gradientUnits="userSpaceOnUse" id="color-9"><stop offset="0" stop-color="#e6e6e6"></stop><stop offset="1" stop-color="#808080"></stop></linearGradient><linearGradient x1="60.03125" y1="34.13659" x2="60.03125" y2="192.63675" gradientUnits="userSpaceOnUse" id="color-10"><stop offset="0" stop-color="#e6e6e6"></stop><stop offset="1" stop-color="#808080"></stop></linearGradient><linearGradient x1="141.25" y1="34.13659" x2="141.25" y2="192.63675" gradientUnits="userSpaceOnUse" id="color-11"><stop offset="0" stop-color="#e6e6e6"></stop><stop offset="1" stop-color="#808080"></stop></linearGradient><linearGradient x1="141.25" y1="34.13659" x2="141.25" y2="192.63675" gradientUnits="userSpaceOnUse" id="color-12"><stop offset="0" stop-color="#e6e6e6"></stop><stop offset="1" stop-color="#808080"></stop></linearGradient></defs><g fill="none" fill-rule="nonzero" stroke="none" stroke-width="1" stroke-linecap="butt" stroke-linejoin="miter" stroke-miterlimit="10" stroke-dasharray="" stroke-dashoffset="0" font-family="none" font-weight="none" font-size="none" text-anchor="none" style="mix-blend-mode: normal"><path d="M0,226v-226h226v226z" fill="none"></path><g><path d="M56.5,60.03125h151.84375v17.65625h-151.84375z" fill="url(#color-1)"></path><path d="M52.96875,63.5625h155.375v14.125h-155.375z" fill="url(#color-2)"></path><path d="M63.5625,123.59375h-28.25c-1.94925,0 -3.53125,-1.582 -3.53125,-3.53125v-14.125c0,-1.94925 1.582,-3.53125 3.53125,-3.53125h28.25c1.94925,0 3.53125,1.582 3.53125,3.53125v14.125c0,1.94925 -1.582,3.53125 -3.53125,3.53125z" fill="url(#color-3)"></path><path d="M197.75,35.3125h-134.1875c-9.73566,0 -17.65625,7.92059 -17.65625,17.65625v17.65625h-17.65625c-9.73566,0 -17.65625,7.92059 -17.65625,17.65625v84.75c0,9.73566 7.92059,17.65625 17.65625,17.65625h134.1875c9.73566,0 17.65625,-7.92059 17.65625,-17.65625v-17.65625h17.65625c9.73566,0 17.65625,-7.92059 17.65625,-17.65625v-52.96875v-28.25v-3.53125c0,-9.73566 -7.92059,-17.65625 -17.65625,-17.65625zM173.03125,173.03125c0,5.84069 -4.75306,10.59375 -10.59375,10.59375h-134.1875c-5.84069,0 -10.59375,-4.75306 -10.59375,-10.59375v-84.75c0,-5.84069 4.75306,-10.59375 10.59375,-10.59375h134.1875c5.84069,0 10.59375,4.75306 10.59375,10.59375zM162.4375,70.625h-109.46875v-7.0625h155.375v14.125h-31.78125v0.10947c-3.2205,-4.32578 -8.33022,-7.17197 -14.125,-7.17197zM208.34375,137.71875c0,5.84069 -4.75306,10.59375 -10.59375,10.59375h-17.65625v-24.71875h14.125v-7.0625h-14.125v-7.0625h14.125v-7.0625h-14.125v-14.125c0,-1.20769 -0.12359,-2.39066 -0.35666,-3.53125h28.60666zM52.96875,56.5v-3.53125c0,-5.84069 4.75306,-10.59375 10.59375,-10.59375h134.1875c5.84069,0 10.59375,4.75306 10.59375,10.59375v3.53125z" fill="url(#color-4)"></path><path d="M123.59375,102.40625h35.3125v7.0625h-35.3125z" fill="url(#color-5)"></path><path d="M137.71875,137.71875h21.1875v7.0625h-21.1875z" fill="url(#color-6)"></path><path d="M102.40625,137.71875h21.1875v7.0625h-21.1875z" fill="url(#color-7)"></path><path d="M67.09375,137.71875h21.1875v7.0625h-21.1875z" fill="url(#color-8)"></path><path d="M31.78125,137.71875h21.1875v7.0625h-21.1875z" fill="url(#color-9)"></path><path d="M31.78125,158.90625h56.5v7.0625h-56.5z" fill="url(#color-10)"></path><path d="M123.59375,158.90625h35.3125v7.0625h-35.3125z" fill="url(#color-11)"></path><path d="M123.59375,116.53125h35.3125v7.0625h-35.3125z" fill="url(#color-12)"></path></g></g></svg>