<svg version="1.1" xmlns="http://www.w3.org/2000/svg" xmlns:xlink="http://www.w3.org/1999/xlink" viewBox="0 0 226 226"><defs><linearGradient x1="56.5" y1="40.01966" x2="56.5" y2="59.664" gradientUnits="userSpaceOnUse" id="color-1"><stop offset="0" stop-color="#e5847c"></stop><stop offset="1" stop-color="#008cb6"></stop></linearGradient><linearGradient x1="77.6875" y1="40.01966" x2="77.6875" y2="59.664" gradientUnits="userSpaceOnUse" id="color-2"><stop offset="0" stop-color="#e5847c"></stop><stop offset="1" stop-color="#008cb6"></stop></linearGradient><linearGradient x1="98.875" y1="40.01966" x2="98.875" y2="59.664" gradientUnits="userSpaceOnUse" id="color-3"><stop offset="0" stop-color="#e5847c"></stop><stop offset="1" stop-color="#008cb6"></stop></linearGradient><linearGradient x1="113" y1="28.25" x2="113" y2="204.27222" gradientUnits="userSpaceOnUse" id="color-4"><stop offset="0" stop-color="#c93428"></stop><stop offset="1" stop-color="#003646"></stop></linearGradient><linearGradient x1="70.3425" y1="28.25" x2="70.3425" y2="204.27222" gradientUnits="userSpaceOnUse" id="color-5"><stop offset="0" stop-color="#c93428"></stop><stop offset="1" stop-color="#003646"></stop></linearGradient><linearGradient x1="156.60741" y1="28.25" x2="156.60741" y2="204.27222" gradientUnits="userSpaceOnUse" id="color-6"><stop offset="0" stop-color="#c93428"></stop><stop offset="1" stop-color="#003646"></stop></linearGradient><linearGradient x1="114.76563" y1="28.25" x2="114.76563" y2="204.27222" gradientUnits="userSpaceOnUse" id="color-7"><stop offset="0" stop-color="#c93428"></stop><stop offset="1" stop-color="#003646"></stop></linearGradient></defs><g fill="none" fill-rule="nonzero" stroke="none" stroke-width="1" stroke-linecap="butt" stroke-linejoin="miter" stroke-miterlimit="10" stroke-dasharray="" stroke-dashoffset="0" font-family="none" font-weight="none" font-size="none" text-anchor="none" style="mix-blend-mode: normal"><path d="M0,226v-226h226v226z" fill="none"></path><g><path d="M56.5,56.5c-3.89497,0 -7.0625,-3.16753 -7.0625,-7.0625c0,-3.89497 3.16753,-7.0625 7.0625,-7.0625c3.89497,0 7.0625,3.16753 7.0625,7.0625c0,3.89497 -3.16753,7.0625 -7.0625,7.0625zM56.5,49.43397v0.00353z" fill="url(#color-1)"></path><path d="M77.6875,56.5c-3.89497,0 -7.0625,-3.16753 -7.0625,-7.0625c0,-3.89497 3.16753,-7.0625 7.0625,-7.0625c3.89497,0 7.0625,3.16753 7.0625,7.0625c0,3.89497 -3.16753,7.0625 -7.0625,7.0625zM77.6875,49.43397v0.00353z" fill="url(#color-2)"></path><path d="M98.875,56.5c-3.89497,0 -7.0625,-3.16753 -7.0625,-7.0625c0,-3.89497 3.16753,-7.0625 7.0625,-7.0625c3.89497,0 7.0625,3.16753 7.0625,7.0625c0,3.89497 -3.16753,7.0625 -7.0625,7.0625zM98.875,49.43397v0.00353z" fill="url(#color-3)"></path><path d="M180.09375,28.25h-134.1875c-9.73566,0 -17.65625,7.92059 -17.65625,17.65625v134.1875c0,9.73566 7.92059,17.65625 17.65625,17.65625h134.1875c9.73566,0 17.65625,-7.92059 17.65625,-17.65625v-134.1875c0,-9.73566 -7.92059,-17.65625 -17.65625,-17.65625zM45.90625,35.3125h134.1875c5.84069,0 10.59375,4.75306 10.59375,10.59375v17.65625h-155.375v-17.65625c0,-5.84069 4.75306,-10.59375 10.59375,-10.59375zM180.09375,190.6875h-134.1875c-5.84069,0 -10.59375,-4.75306 -10.59375,-10.59375v-109.46875h155.375v109.46875c0,5.84069 -4.75306,10.59375 -10.59375,10.59375z" fill="url(#color-4)"></path><path d="M81.82259,99.75075l-25.20253,22.05266c-1.53609,1.34188 -2.41537,3.28406 -2.41537,5.32513c0,2.04106 0.87928,3.97972 2.41537,5.32513l25.20253,22.04913l4.65066,-5.31453l-25.20253,-22.07384l25.20253,-22.04913z" fill="url(#color-5)"></path><path d="M146.64928,99.88141l-4.93316,5.05322l22.72006,22.2045l-22.72006,22.17978l4.93316,5.05322l22.72006,-22.17978c1.37366,-1.34188 2.13287,-3.14281 2.13287,-5.06381c0,-1.921 -0.75922,-3.72194 -2.13287,-5.06381z" fill="url(#color-6)"></path><path d="M95.55209,171.83416l6.64581,2.39419l31.78125,-88.28125l-6.64581,-2.39419z" fill="url(#color-7)"></path></g></g></svg>