<svg version="1.1" xmlns="http://www.w3.org/2000/svg" xmlns:xlink="http://www.w3.org/1999/xlink" viewBox="0 0 226 226"><defs><linearGradient x1="86.51563" y1="14.71472" x2="86.51563" y2="209.4455" gradientUnits="userSpaceOnUse" id="color-1"><stop offset="0" stop-color="#003646"></stop><stop offset="1" stop-color="#003646"></stop></linearGradient><linearGradient x1="44.14416" y1="14.71472" x2="44.14416" y2="209.4455" gradientUnits="userSpaceOnUse" id="color-2"><stop offset="0" stop-color="#003646"></stop><stop offset="1" stop-color="#003646"></stop></linearGradient><linearGradient x1="139.48438" y1="14.71472" x2="139.48438" y2="209.4455" gradientUnits="userSpaceOnUse" id="color-3"><stop offset="0" stop-color="#003646"></stop><stop offset="1" stop-color="#003646"></stop></linearGradient><linearGradient x1="181.85584" y1="14.71472" x2="181.85584" y2="209.4455" gradientUnits="userSpaceOnUse" id="color-4"><stop offset="0" stop-color="#003646"></stop><stop offset="1" stop-color="#003646"></stop></linearGradient><linearGradient x1="113" y1="14.71472" x2="113" y2="209.4455" gradientUnits="userSpaceOnUse" id="color-5"><stop offset="0" stop-color="#003646"></stop><stop offset="1" stop-color="#003646"></stop></linearGradient><linearGradient x1="113" y1="98.28528" x2="113" y2="126.53528" gradientUnits="userSpaceOnUse" id="color-6"><stop offset="0" stop-color="#008cb6"></stop><stop offset="1" stop-color="#008cb6"></stop></linearGradient></defs><g fill="none" fill-rule="nonzero" stroke="none" stroke-width="1" stroke-linecap="butt" stroke-linejoin="miter" stroke-miterlimit="10" stroke-dasharray="" stroke-dashoffset="0" font-family="none" font-weight="none" font-size="none" text-anchor="none" style="mix-blend-mode: normal"><path d="M0,226v-226h226v226z" fill="none"></path><g id="original-icon"><path d="M45.90625,56.5c0,-5.84069 4.74953,-10.59375 10.59375,-10.59375h35.3125v14.27331c0,2.45422 1.28184,4.67184 3.43238,5.9325c1.10881,0.65328 2.36241,0.97463 3.61247,0.97463c1.20769,0 2.41538,-0.30369 3.49594,-0.91106l26.53734,-14.87716c3.31231,-1.85744 5.29688,-5.19447 5.29688,-8.92347c0,-3.729 -1.98456,-7.06603 -5.29687,-8.92347l-26.53734,-14.87716c-2.20703,-1.23594 -4.92963,-1.21475 -7.11194,0.06709c-2.147,1.25712 -3.42884,3.47475 -3.42884,5.92897v14.27331h-35.3125c-9.73566,0 -17.65625,7.92059 -17.65625,17.65625v14.125h7.0625zM98.89972,24.73288l26.53734,14.87716c1.52197,0.85456 1.68794,2.21763 1.68794,2.76497c0,0.54734 -0.16597,1.91041 -1.69147,2.76497l-26.55853,15.03959z" fill="url(#color-1)"></path><path d="M45.90625,169.5v-35.3125h14.27331c2.45422,0 4.67184,-1.28184 5.9325,-3.43238c1.27478,-2.18231 1.30303,-4.90844 0.06709,-7.11194l-14.88069,-26.53381c-1.85744,-3.31584 -5.19447,-5.29687 -8.92347,-5.29687c-3.729,0 -7.06603,1.98103 -8.92347,5.29688l-14.87716,26.53734c-1.23947,2.2035 -1.21122,4.92963 0.06709,7.11194c1.25359,2.147 3.46769,3.42884 5.92544,3.42884h14.27684v35.3125c0,9.73566 7.92059,17.65625 17.65625,17.65625h14.125v-7.0625h-14.125c-5.84422,0 -10.59375,-4.75306 -10.59375,-10.59375zM39.61003,100.56294c0.85456,-1.5255 2.21409,-1.68794 2.76497,-1.68794c0.55088,0 1.91041,0.16244 2.76497,1.69147l15.03959,26.55853l-35.44669,-0.02472z" fill="url(#color-2)"></path><path d="M180.09375,169.5c0,5.84069 -4.75306,10.59375 -10.59375,10.59375h-35.3125v-14.27331c0,-2.45422 -1.28184,-4.67184 -3.43238,-5.9325c-2.18231,-1.28184 -4.90491,-1.30303 -7.11194,-0.06709l-26.53381,14.88069c-3.31938,1.85744 -5.29687,5.19447 -5.29687,8.92347c0,3.73253 1.98103,7.06603 5.29688,8.92347l26.53734,14.87716c1.08409,0.60737 2.28825,0.91106 3.49594,0.91106c1.25006,0 2.50366,-0.32487 3.616,-0.97463c2.147,-1.26066 3.42884,-3.47828 3.42884,-5.9325v-14.27331h35.3125c9.73566,0 17.65625,-7.92059 17.65625,-17.65625v-14.125h-7.0625zM127.10028,201.26713l-26.53734,-14.87716c-1.5255,-0.85456 -1.68794,-2.21762 -1.68794,-2.76497c0,-0.54734 0.16244,-1.91041 1.69147,-2.76497l26.55853,-15.03959z" fill="url(#color-3)"></path><path d="M207.35853,95.24488c-1.25713,-2.15053 -3.47475,-3.43238 -5.92897,-3.43238h-14.27331v-35.3125c0,-9.73566 -7.92059,-17.65625 -17.65625,-17.65625h-14.125v7.0625h14.125c5.84069,0 10.59375,4.75306 10.59375,10.59375v35.3125h-14.27684c-2.45422,0 -4.66831,1.28184 -5.92897,3.43238c-1.27478,2.17878 -1.30303,4.90844 -0.06709,7.11194l14.87716,26.53734c1.86097,3.31231 5.198,5.29334 8.927,5.29334c3.73253,0 7.06603,-1.98103 8.92347,-5.29687l14.87716,-26.53734c1.23947,-2.2035 1.21122,-4.92609 -0.06709,-7.10841zM186.38997,125.43353c-0.85456,1.52903 -2.21762,1.69147 -2.76497,1.69147c-0.54734,0 -1.91041,-0.16244 -2.76497,-1.69147l-15.04312,-26.55853l35.45022,0.02472z" fill="url(#color-4)"></path><path d="M137.71875,98.875c0,-5.85128 -4.74247,-10.59375 -10.59375,-10.59375h-28.25c-5.85128,0 -10.59375,4.74247 -10.59375,10.59375v28.25c0,5.85128 4.74247,10.59375 10.59375,10.59375h28.25c5.85128,0 10.59375,-4.74247 10.59375,-10.59375zM130.65625,127.125c0,1.94925 -1.582,3.53125 -3.53125,3.53125h-28.25c-1.94925,0 -3.53125,-1.582 -3.53125,-3.53125v-28.25c0,-1.94925 1.582,-3.53125 3.53125,-3.53125h28.25c1.94925,0 3.53125,1.582 3.53125,3.53125z" fill="url(#color-5)"></path><path d="M123.59375,120.0625c0,1.94925 -1.582,3.53125 -3.53125,3.53125h-14.125c-1.94925,0 -3.53125,-1.582 -3.53125,-3.53125v-14.125c0,-1.94925 1.582,-3.53125 3.53125,-3.53125h14.125c1.94925,0 3.53125,1.582 3.53125,3.53125z" fill="url(#color-6)"></path></g></g></svg>