<svg version="1.1" xmlns="http://www.w3.org/2000/svg" xmlns:xlink="http://www.w3.org/1999/xlink" viewBox="0 0 226 226"><defs><linearGradient x1="127.125" y1="85.21966" x2="127.125" y2="99.37644" gradientUnits="userSpaceOnUse" id="color-1"><stop offset="0" stop-color="#e5847c"></stop><stop offset="1" stop-color="#008cb6"></stop></linearGradient><linearGradient x1="98.875" y1="85.21966" x2="98.875" y2="99.37644" gradientUnits="userSpaceOnUse" id="color-2"><stop offset="0" stop-color="#e5847c"></stop><stop offset="1" stop-color="#008cb6"></stop></linearGradient><linearGradient x1="174.79688" y1="97.55078" x2="174.79688" y2="111.24144" gradientUnits="userSpaceOnUse" id="color-3"><stop offset="0" stop-color="#e5847c"></stop><stop offset="1" stop-color="#008cb6"></stop></linearGradient><linearGradient x1="51.20313" y1="97.55078" x2="51.20313" y2="111.24144" gradientUnits="userSpaceOnUse" id="color-4"><stop offset="0" stop-color="#e5847c"></stop><stop offset="1" stop-color="#008cb6"></stop></linearGradient><linearGradient x1="113" y1="38.84375" x2="113" y2="187.15625" gradientUnits="userSpaceOnUse" id="color-5"><stop offset="0" stop-color="#c93428"></stop><stop offset="1" stop-color="#003646"></stop></linearGradient></defs><g fill="none" fill-rule="nonzero" stroke="none" stroke-width="1" stroke-linecap="butt" stroke-linejoin="miter" stroke-miterlimit="10" stroke-dasharray="" stroke-dashoffset="0" font-family="none" font-weight="none" font-size="none" text-anchor="none" style="mix-blend-mode: normal"><path d="M0,226v-226h226v226z" fill="none"></path><g><path d="M127.125,84.75c-3.90051,0 -7.0625,3.16199 -7.0625,7.0625c0,3.90051 3.16199,7.0625 7.0625,7.0625c3.90051,0 7.0625,-3.16199 7.0625,-7.0625c0,-3.90051 -3.16199,-7.0625 -7.0625,-7.0625z" fill="url(#color-1)"></path><path d="M98.875,84.75c-3.90051,0 -7.0625,3.16199 -7.0625,7.0625c0,3.90051 3.16199,7.0625 7.0625,7.0625c3.90051,0 7.0625,-3.16199 7.0625,-7.0625c0,-3.90051 -3.16199,-7.0625 -7.0625,-7.0625z" fill="url(#color-2)"></path><path d="M174.79688,98.875c-2.92538,0 -5.29687,2.37149 -5.29687,5.29688c0,2.92538 2.37149,5.29688 5.29688,5.29688c2.92538,0 5.29688,-2.37149 5.29688,-5.29687c0,-2.92538 -2.37149,-5.29687 -5.29687,-5.29687z" fill="url(#color-3)"></path><path d="M51.20313,98.875c-2.92538,0 -5.29687,2.37149 -5.29687,5.29688c0,2.92538 2.37149,5.29688 5.29688,5.29688c2.92538,0 5.29688,-2.37149 5.29688,-5.29687c0,-2.92538 -2.37149,-5.29687 -5.29687,-5.29687z" fill="url(#color-4)"></path><path d="M190.68397,131.57791c3.36528,-4.33284 5.67825,-9.49906 6.59284,-15.142c0.16244,0.02119 0.30722,0.09534 0.47319,0.09534c7.78994,0 14.125,-6.33506 14.125,-14.125c0,-7.78994 -6.33506,-14.125 -14.125,-14.125c-0.03178,0 -0.0565,0.01766 -0.08828,0.01766c-0.91813,-17.6845 -15.55163,-31.79891 -33.45859,-31.79891c-5.73475,0 -11.30706,1.5255 -16.27906,4.29753c-6.29975,-12.97028 -19.56312,-21.95378 -34.92406,-21.95378c-15.36094,0 -28.62431,8.9835 -34.92406,21.95378c-4.972,-2.77203 -10.54431,-4.29753 -16.27906,-4.29753c-17.90697,0 -32.54047,14.11441 -33.45859,31.79891c-0.03178,0 -0.0565,-0.01766 -0.08828,-0.01766c-7.78994,0 -14.125,6.33506 -14.125,14.125c0,7.78994 6.33506,14.125 14.125,14.125c0.16597,0 0.31075,-0.07416 0.47319,-0.09534c0.91459,5.64294 3.22756,10.80916 6.59284,15.142c-15.50219,11.29647 -24.72228,29.27759 -24.72228,48.51584v7.0625h42.375h3.53125h113h3.53125h42.375v-7.0625c0,-19.23825 -9.22009,-37.21937 -24.72228,-48.51584zM204.8125,102.40625c0,3.89497 -3.16753,7.0625 -7.0625,7.0625v-14.125c3.89497,0 7.0625,3.16753 7.0625,7.0625zM164.20313,63.5625c14.60525,0 26.48438,11.87913 26.48438,26.48438v21.01094c0,14.60525 -11.87912,26.48438 -26.48437,26.48438v0.62503c-4.24456,-6.93891 -9.92634,-13.02325 -16.7805,-17.82928c1.77975,-3.40412 3.06159,-7.10134 3.76784,-10.99984c0.21894,0.04238 0.42022,0.13066 0.65328,0.13066c7.78994,0 14.125,-6.33506 14.125,-14.125c0,-7.78994 -6.33506,-14.125 -14.125,-14.125v-3.53125c0,-3.54891 -0.51909,-6.97422 -1.41603,-10.24416c4.14216,-2.52837 8.89169,-3.88084 13.77541,-3.88084zM151.84375,98.875c1.94925,0 3.53125,-1.582 3.53125,-3.53125c0,-1.94925 -1.582,-3.53125 -3.53125,-3.53125v-3.53125c3.89497,0 7.0625,3.16753 7.0625,7.0625c0,3.89497 -3.16753,7.0625 -7.0625,7.0625zM81.21875,77.6875c0,-17.52559 14.25919,-31.78125 31.78125,-31.78125c17.52206,0 31.78125,14.25566 31.78125,31.78125v24.71875c0,17.52559 -14.25919,31.78125 -31.78125,31.78125c-17.52206,0 -31.78125,-14.25566 -31.78125,-31.78125zM74.15625,91.8125c-1.94925,0 -3.53125,1.582 -3.53125,3.53125c0,1.94925 1.582,3.53125 3.53125,3.53125v3.53125c-3.89497,0 -7.0625,-3.16753 -7.0625,-7.0625c0,-3.89497 3.16753,-7.0625 7.0625,-7.0625zM21.1875,102.40625c0,-3.89497 3.16753,-7.0625 7.0625,-7.0625v14.125c-3.89497,0 -7.0625,-3.16753 -7.0625,-7.0625zM35.3125,90.04688c0,-14.60525 11.87913,-26.48437 26.48438,-26.48437c4.88372,0 9.63325,1.35247 13.77541,3.88084c-0.89694,3.26994 -1.41603,6.69525 -1.41603,10.24416v3.53125c-7.78994,0 -14.125,6.33506 -14.125,14.125c0,7.78994 6.33506,14.125 14.125,14.125c0.23306,0 0.43434,-0.08828 0.65328,-0.13066c0.70625,3.8985 1.98456,7.59572 3.76784,10.99984c-6.85416,4.80603 -12.53241,10.89391 -16.7805,17.82928v-0.62503c-14.60525,0 -26.48437,-11.87912 -26.48437,-26.48437zM17.65625,180.09375c0,-17.289 8.43616,-33.44094 22.58234,-43.37081c5.03556,4.23397 11.31766,7.02719 18.22125,7.71225c-3.56656,7.75109 -5.49109,16.27906 -5.49109,25.06481v10.59375zM105.9375,180.09375c0,-3.89497 3.16753,-7.0625 7.0625,-7.0625c3.89497,0 7.0625,3.16753 7.0625,7.0625zM165.96875,180.09375h-38.84375c0,-7.78994 -6.33506,-14.125 -14.125,-14.125c-7.78994,0 -14.125,6.33506 -14.125,14.125h-38.84375v-10.59375c0,-17.20778 8.35847,-33.28556 22.38459,-43.22956c7.11547,9.10003 18.16475,14.97956 30.58416,14.97956c12.41941,0 23.46869,-5.87953 30.58416,-14.97956c14.02613,9.944 22.38459,26.02178 22.38459,43.22956zM173.03125,180.09375v-10.59375c0,-8.78575 -1.92453,-17.31372 -5.48756,-25.06481c6.90006,-0.68506 13.18569,-3.47828 18.22125,-7.71225c14.14266,9.92988 22.57881,26.08181 22.57881,43.37081zM145.12731,135.19744l4.94375,5.04262c-9.95812,9.76038 -23.12262,15.13494 -37.07106,15.13494c-13.94844,0 -27.11294,-5.37456 -37.07106,-15.13494l4.94375,-5.04262c8.63038,8.45734 20.03984,13.11506 32.12731,13.11506c12.08747,0 23.49694,-4.65772 32.12731,-13.11506zM98.28175,67.92713l-5.87953,-3.90909c4.59769,-6.91772 12.29934,-11.04928 20.59778,-11.04928c8.79634,0 16.99944,4.73541 21.40997,12.35584l-6.11259,3.53831c-3.15341,-5.44872 -9.01528,-8.83166 -15.29738,-8.83166c-5.92897,0 -11.43066,2.95212 -14.71825,7.89588z" fill="url(#color-5)"></path></g></g></svg>