<svg version="1.1" xmlns="http://www.w3.org/2000/svg" xmlns:xlink="http://www.w3.org/1999/xlink" viewBox="0 0 226 226"><defs><linearGradient x1="68.97238" y1="111.26969" x2="68.97238" y2="136.63819" gradientUnits="userSpaceOnUse" id="color-1"><stop offset="0" stop-color="#008cb6"></stop><stop offset="1" stop-color="#e492ff"></stop></linearGradient><linearGradient x1="102.63931" y1="144.22684" x2="102.63931" y2="170.81716" gradientUnits="userSpaceOnUse" id="color-2"><stop offset="0" stop-color="#008cb6"></stop><stop offset="1" stop-color="#e492ff"></stop></linearGradient><linearGradient x1="145.92538" y1="61.83219" x2="145.92538" y2="100.71478" gradientUnits="userSpaceOnUse" id="color-3"><stop offset="0" stop-color="#008cb6"></stop><stop offset="1" stop-color="#e492ff"></stop></linearGradient><linearGradient x1="113" y1="16.51213" x2="113" y2="209.72094" gradientUnits="userSpaceOnUse" id="color-4"><stop offset="0" stop-color="#003646"></stop><stop offset="1" stop-color="#c822ff"></stop></linearGradient><linearGradient x1="145.92538" y1="16.51213" x2="145.92538" y2="209.72094" gradientUnits="userSpaceOnUse" id="color-5"><stop offset="0" stop-color="#003646"></stop><stop offset="1" stop-color="#c822ff"></stop></linearGradient></defs><g fill="none" fill-rule="nonzero" stroke="none" stroke-width="1" stroke-linecap="butt" stroke-linejoin="miter" stroke-miterlimit="10" stroke-dasharray="" stroke-dashoffset="0" font-family="none" font-weight="none" font-size="none" text-anchor="none" style="mix-blend-mode: normal"><path d="M0,226v-226h226v226z" fill="none"></path><g><path d="M76.18319,135.38813l-19.23825,-19.23825l4.80956,-4.80956l19.24178,19.23825z" fill="url(#color-1)"></path><path d="M109.85366,169.05859l-19.23825,-19.23825l4.80956,-4.80956l19.23825,19.23825z" fill="url(#color-2)"></path><path d="M145.92538,66.47578c-7.51238,0 -13.60238,6.08999 -13.60238,13.60237c0,7.51238 6.08999,13.60238 13.60238,13.60238c7.51238,0 13.60237,-6.08999 13.60237,-13.60238c0,-7.51238 -6.08999,-13.60237 -13.60237,-13.60237z" fill="url(#color-3)"></path><path d="M194.11281,31.89072c-21.38525,-21.39584 -55.80081,-6.91066 -72.32706,9.61913l-32.12731,32.12378l-18.80744,-6.2715c-6.19734,-2.05166 -12.92084,-0.47319 -17.54325,4.14569l-30.12509,30.12156c-1.31009,1.31009 -2.03047,3.051 -2.03047,4.90491c0,1.85037 0.72391,3.59481 2.03047,4.90138l1.67734,1.67734c0.97109,0.97109 2.19997,1.63144 3.54184,1.89628l19.47484,3.89497c0.678,0.13419 1.356,0.20481 2.034,0.20481c0.65328,0 1.29597,-0.07063 1.93159,-0.19069c0.46966,1.695 1.32775,3.26641 2.60606,4.54472l16.74166,16.73813l-2.31297,2.31297c-4.02916,4.02916 -4.02916,10.58316 0,14.61231c1.95278,1.95278 4.54825,3.02628 7.30616,3.02628c2.76144,0 5.35691,-1.07703 7.30616,-3.02628l2.31297,-2.30944l16.74166,16.74166c1.32422,1.32069 2.92741,2.16466 4.61181,2.62019c-0.24719,1.29244 -0.32134,2.62019 -0.0565,3.95147l3.89497,19.47131c0.26838,1.34188 0.92166,2.56722 1.89981,3.54537l1.67734,1.67734c1.35247,1.35247 3.12516,2.02694 4.90138,2.02694c1.77269,0 3.54891,-0.67447 4.90137,-2.02694l30.12156,-30.12156c4.62241,-4.62241 6.20794,-11.34238 4.14216,-17.54678l-6.26797,-18.80391l32.12378,-32.12378c16.52272,-16.53331 31.00791,-50.94887 9.61912,-72.33766zM52.20953,111.08253c-0.76981,0.77687 -1.87509,1.09469 -2.94506,0.89341l-19.40775,-3.85966l-1.67734,-1.49372l30.12509,-30.12156c2.71553,-2.71906 6.67759,-3.63719 10.31478,-2.43656l15.45981,5.15209l-24.81762,24.81762zM59.44506,118.46638c-0.61797,-0.61797 -0.9605,-1.44075 -0.9605,-2.31297c0,-0.87575 0.34253,-1.695 0.95697,-2.31297l2.31297,-2.31297l19.05462,19.05462l-4.62594,4.62594zM78.49616,152.12978c-1.23241,1.23594 -3.38294,1.23594 -4.62594,0c-1.27478,-1.27478 -1.27478,-3.34762 0,-4.62594l36.07525,-36.07172c0.61797,-0.6215 1.43722,-0.95697 2.30944,-0.95697c0.87575,0 1.695,0.34253 2.31297,0.95697c1.27478,1.27478 1.27478,3.34762 0,4.62594l-36.07172,36.07172zM90.7955,149.82034l4.62594,-4.62947l19.05463,19.05462l-0.78041,0.78041l-1.53963,1.53963c-1.27478,1.26772 -3.34409,1.26772 -4.61888,-0.00353zM149.50253,167.69906l-29.94147,30.12156l-1.6385,-1.61025l-3.89497,-19.47484c-0.21541,-1.06997 0.12006,-2.17172 0.88988,-2.94506l2.22116,-2.22116c0.00706,-0.00353 0.01412,-0.01059 0.01766,-0.01412l2.40478,-2.40831v0l27.21887,-27.21887l5.15209,15.45275c1.22181,3.65131 0.28603,7.60278 -2.4295,10.31831zM129.09191,149.63672l-9.52731,-9.52731l-4.99319,4.99319l9.52731,9.52731l-4.62594,4.62594l-19.05463,-19.05463l19.14644,-19.14644c4.02916,-4.02916 4.02916,-10.58316 0,-14.61231c-3.90556,-3.90203 -10.71381,-3.90203 -14.61584,0l-19.14644,19.14644l-19.05463,-19.05463l4.62594,-4.62594l9.52731,9.52731l4.99319,-4.99319l-9.52731,-9.52731l50.41213,-50.40859c15.08197,-15.08197 45.13997,-26.80925 62.34069,-9.61913c17.20072,17.20072 5.46637,47.25872 -9.61912,62.34069z" fill="url(#color-4)"></path><path d="M133.80966,67.96244c-6.68112,6.68112 -6.68112,17.55384 0,24.23144c3.23816,3.23816 7.53922,5.02144 12.11572,5.02144c4.5765,0 8.88109,-1.78328 12.11572,-5.02144c6.68113,-6.68112 6.68113,-17.55384 0,-24.23144c-6.68112,-6.68112 -17.55384,-6.67759 -24.23144,0zM153.04791,87.20069c-3.80669,3.80669 -10.43838,3.80669 -14.24506,0c-3.92675,-3.92675 -3.92675,-10.31831 0,-14.24506c1.96338,-1.96337 4.54472,-2.94506 7.12253,-2.94506c2.57781,0 5.15916,0.98169 7.12253,2.94506c3.92675,3.92675 3.92675,10.31831 0,14.24506z" fill="url(#color-5)"></path></g></g></svg>