<svg version="1.1" xmlns="http://www.w3.org/2000/svg" xmlns:xlink="http://www.w3.org/1999/xlink" viewBox="0 0 226 226"><defs><linearGradient x1="146.67047" y1="110.38688" x2="146.67047" y2="190.6875" gradientUnits="userSpaceOnUse" id="color-1"><stop offset="0" stop-color="#ffffff"></stop><stop offset="1" stop-color="#b8b8b8"></stop></linearGradient><linearGradient x1="116.955" y1="24.61281" x2="116.955" y2="208.34375" gradientUnits="userSpaceOnUse" id="color-2"><stop offset="0" stop-color="#e6e6e6"></stop><stop offset="1" stop-color="#808080"></stop></linearGradient></defs><g fill="none" fill-rule="nonzero" stroke="none" stroke-width="1" stroke-linecap="butt" stroke-linejoin="miter" stroke-miterlimit="10" stroke-dasharray="" stroke-dashoffset="0" font-family="none" font-weight="none" font-size="none" text-anchor="none" style="mix-blend-mode: normal"><path d="M0,226v-226h226v226z" fill="none"></path><g><path d="M100.46406,28.25h-0.24719l0.14125,-0.10594z" fill="#ffffff"></path><path d="M187.15625,150.07813c0,22.42344 -18.18594,40.60938 -40.60937,40.60938c-20.94031,0 -38.20812,-15.85531 -40.36219,-36.23063c2.75438,0.60031 5.65,0.91813 8.58094,0.91813c22.42344,0 40.60938,-18.18594 40.60938,-40.60937c0,-1.48313 -0.07063,-2.93094 -0.24719,-4.37875c18.29188,3.91969 32.02844,20.19875 32.02844,39.69125z" fill="url(#color-1)"></path><path d="M181.11781,103.1125l4.06094,-6.4975c1.48313,-2.40125 2.36594,-5.15563 2.57781,-7.94531l2.86031,-36.79562c0.35313,-4.59063 -1.05937,-9.07531 -3.99031,-12.60656l-12.04156,-14.54875h-9.18125l15.78469,19.03344c1.76563,2.11875 2.61312,4.83781 2.40125,7.59219l-2.86031,36.76031c-0.14125,1.695 -0.67094,3.31938 -1.55375,4.76719l-4.02562,6.42687c-6.42687,-3.60187 -13.66594,-6.03844 -21.43469,-6.99187c-1.37719,-2.57781 -2.96625,-5.04969 -4.83781,-7.345l-48.41344,-60.24313l-0.10594,-0.10594l-0.14125,0.10594l-5.3675,4.30813l48.51938,60.34906c6.03844,7.52156 8.7575,16.56156 8.40438,25.49563l-29.69781,-36.79563c-3.60188,-4.48469 -10.20531,-5.22625 -14.72531,-1.65969l-29.20344,23.165c-2.22469,1.73031 -3.60187,4.27281 -3.91969,7.0625c-0.31781,2.825 0.49438,5.57938 2.26,7.80406l29.6625,36.68969c-8.82812,-1.62438 -17.09125,-6.215 -23.12969,-13.73656l-48.41344,-60.20781l-5.50875,4.41406l48.41344,60.24313c3.1075,3.84906 6.78,7.09781 10.84094,9.74625c0.81219,31.42812 26.59031,56.74719 58.195,56.74719c32.13438,0 58.26563,-26.13125 58.26563,-58.26562c0,-19.24531 -9.25187,-36.33656 -23.69469,-46.96562zM81.99562,109.99844c-0.60031,-0.74156 -0.8475,-1.62438 -0.74156,-2.57781c0.10594,-0.91813 0.565,-1.73031 1.27125,-2.33062l29.20344,-23.12969c1.48312,-1.16531 3.6725,-0.91813 4.87313,0.565l33.65281,41.70406c-2.15406,7.30969 -6.46219,14.05437 -12.92437,19.17469c-6.42687,5.12031 -13.98375,7.83937 -21.64656,8.33375zM146.54688,201.28125c-26.44906,0 -48.27219,-20.16344 -50.92062,-45.94156c5.47344,2.29531 11.44125,3.56656 17.58563,3.56656c0.24719,0 0.49438,-0.03531 0.74156,-0.03531c0.03531,0 0.10594,0.03531 0.14125,0.03531c0.10594,0 0.21188,-0.03531 0.31781,-0.03531c9.8875,-0.2825 19.56312,-3.74312 27.33187,-9.92281c9.53438,-7.59219 15.5375,-18.46844 16.87938,-30.54531c0.70625,-6.32094 0.07063,-12.57125 -1.76562,-18.46844c23.65937,4.76719 40.89187,25.46031 40.89187,50.14375c0,28.25 -22.95312,51.20313 -51.20312,51.20313z" fill="url(#color-2)"></path></g></g></svg>